<?xml version="1.0" encoding="UTF-8"?>
<svg id="Calque_2" data-name="Calque 2" xmlns="http://www.w3.org/2000/svg" viewBox="0 0 141.73 141.73">
  <defs>
    <style>
      .cls-1 {
        fill: #3ce7f0;
      }

      .cls-1, .cls-2, .cls-3 {
        stroke-width: 0px;
      }

      .cls-2 {
        fill: #231955;
      }

      .cls-3 {
        fill: #ff87a1;
      }
    </style>
  </defs>
  <g>
    <path class="cls-2" d="M15,123.08v-22.48c0-.3.23-.53.53-.53h4.48c.3,0,.53.23.53.53v9.25c.92-1.65,2.34-2.77,4.61-2.77,3.33,0,5.83,2.5,5.83,6.68v9.32c0,.3-.26.53-.56.53h-4.44c-.3,0-.53-.23-.53-.53v-7.93c0-2.01-.82-3-2.44-3s-2.47.99-2.47,3v7.93c0,.3-.23.53-.53.53h-4.48c-.3,0-.53-.23-.53-.53Z"/>
    <path class="cls-2" d="M35.94,129.27l2.37-5.66-6.25-15.57c-.13-.36.07-.56.43-.56h4.58c.26,0,.53.13.63.4l3.29,9.28,3.32-9.28c.1-.26.36-.4.63-.4h4.58c.36,0,.53.2.4.56l-8.53,21.43c-.1.26-.36.4-.63.4h-4.38c-.39,0-.63-.2-.43-.59h-.01Z"/>
    <path class="cls-2" d="M52.33,123.08v-15.08c0-.3.23-.53.53-.53h4.35c.26,0,.49.13.49.56l.13,1.61c.92-1.51,2.4-2.57,4.51-2.57,1.98,0,3.56.95,4.48,2.7.95-1.58,2.57-2.7,4.94-2.7,3.52,0,5.7,2.47,5.7,6.68v9.32c0,.3-.23.53-.53.53h-4.48c-.3,0-.53-.23-.53-.53v-8c0-1.94-.66-2.93-2.14-2.93s-2.14.99-2.14,2.93v8c0,.3-.23.53-.53.53h-4.41c-.36,0-.59-.23-.59-.53v-8c0-1.94-.63-2.93-2.11-2.93-1.38,0-2.14.99-2.14,2.93v8c0,.3-.23.53-.53.53h-4.48c-.3,0-.53-.23-.53-.53h0Z"/>
    <path class="cls-2" d="M80.02,115.54c0-4.74,3.06-8.46,7.51-8.46,2.27,0,3.82.82,4.84,2.24l.07-1.32c0-.3.23-.53.53-.53h4.08c.3,0,.53.23.53.53v15.08c0,.3-.26.53-.56.53h-4.05c-.3,0-.53-.23-.53-.53l-.07-1.35c-1.09,1.42-2.63,2.27-4.84,2.27-4.44,0-7.51-3.69-7.51-8.46ZM88.78,119c1.94,0,3.29-1.38,3.29-3.49s-1.35-3.42-3.29-3.42-3.36,1.38-3.36,3.46,1.45,3.46,3.36,3.46h0Z"/>
    <path class="cls-2" d="M99.9,100.4c1.45,0,2.67,1.15,2.67,2.7s-1.22,2.7-2.67,2.7-2.67-1.15-2.67-2.7,1.22-2.7,2.67-2.7ZM100.99,123.08v-15.08c0-.3.23-.53.53-.53h4.54c.3,0,.53.23.53.53v15.08c0,.3-.23.53-.53.53h-4.54c-.3,0-.53-.23-.53-.53ZM107.7,100.4c1.48,0,2.7,1.15,2.7,2.7s-1.22,2.7-2.7,2.7-2.67-1.15-2.67-2.7,1.22-2.7,2.67-2.7Z"/>
    <path class="cls-2" d="M109.19,115.54c0-4.74,3.06-8.46,7.51-8.46,2.27,0,3.82.82,4.84,2.24l.07-1.32c0-.3.23-.53.53-.53h4.08c.3,0,.53.23.53.53v15.08c0,.3-.26.53-.56.53h-4.05c-.3,0-.53-.23-.53-.53l-.07-1.35c-1.09,1.42-2.63,2.27-4.84,2.27-4.44,0-7.51-3.69-7.51-8.46ZM117.94,119c1.94,0,3.29-1.38,3.29-3.49s-1.35-3.42-3.29-3.42-3.36,1.38-3.36,3.46,1.45,3.46,3.36,3.46h0Z"/>
  </g>
  <g>
    <g>
      <g>
        <path class="cls-3" d="M59.82,18.62c.53,1.81.8,3.72.78,5.71-.1,10.66-8.82,19.38-19.48,19.48-1.98.02-3.9-.26-5.71-.78-2.82-.82-4.27-3.97-3.05-6.65.03-.06.06-.12.08-.18,1.01-2.19,3.48-3.24,5.8-2.59.85.24,1.75.37,2.68.37,5.43,0,9.83-4.4,9.83-9.83,0-.93-.13-1.83-.37-2.68-.66-2.32.4-4.79,2.58-5.8.06-.03.12-.06.19-.08,2.68-1.22,5.83.23,6.65,3.05l.02-.02Z"/>
        <path class="cls-3" d="M75.4,16.9v7.22c0,11.25-5.43,21.26-13.8,27.55-.63.48-1.49.51-2.18.1-2.49-1.47-5.17-2.65-8-3.5-.87-.26-.95-1.45-.13-1.83,8.42-3.9,14.27-12.44,14.27-22.32v-7.33c0-2.68,2.15-4.86,4.82-4.92s5.01,2.27,5.01,5.03h.01Z"/>
      </g>
      <circle class="cls-3" cx="41" cy="24.13" r="4.92"/>
    </g>
    <g>
      <g>
        <path class="cls-2" d="M35.46,64.25c1.81-.53,3.72-.8,5.71-.78,10.66.1,19.38,8.82,19.48,19.48.02,1.98-.26,3.9-.78,5.71-.82,2.82-3.97,4.27-6.65,3.05-.06-.03-.12-.06-.18-.08-2.19-1.01-3.24-3.48-2.59-5.8.24-.85.37-1.75.37-2.68,0-5.43-4.4-9.83-9.83-9.83-.93,0-1.83.13-2.68.37-2.32.66-4.79-.4-5.8-2.58-.03-.06-.06-.12-.08-.19-1.22-2.68.23-5.83,3.05-6.65l-.02-.02Z"/>
        <path class="cls-2" d="M68.62,64.69c-1.47,2.49-2.65,5.17-3.5,8-.26.87-1.45.95-1.83.13-3.9-8.42-12.44-14.27-22.32-14.27h-7.34c-2.71,0-4.92-2.2-4.92-4.92s2.2-4.92,4.92-4.92h7.34c11.25,0,21.26,5.43,27.55,13.8.48.63.51,1.49.1,2.18Z"/>
      </g>
      <circle class="cls-2" cx="41" cy="83.14" r="4.92"/>
    </g>
    <g>
      <g>
        <path class="cls-1" d="M81.1,88.65c-.53-1.81-.8-3.72-.78-5.71.1-10.66,8.82-19.38,19.48-19.48,1.98-.02,3.9.26,5.71.78,2.82.82,4.27,3.97,3.05,6.65-.03.06-.06.12-.08.18-1.01,2.19-3.48,3.24-5.8,2.59-.85-.24-1.75-.37-2.68-.37-5.43,0-9.83,4.4-9.83,9.83,0,.93.13,1.83.37,2.68.66,2.32-.4,4.79-2.58,5.8-.06.03-.12.06-.19.08-2.68,1.22-5.83-.23-6.65-3.05l-.02.02Z"/>
        <path class="cls-1" d="M89.54,58.98c.87.26.95,1.45.13,1.83-8.42,3.91-14.27,12.44-14.27,22.32v7.24c0,2.76-2.26,5.08-5.01,5.03s-4.82-2.23-4.82-4.92v-7.35c0-11.25,5.43-21.26,13.8-27.55.63-.48,1.49-.51,2.18-.1,2.49,1.47,5.17,2.65,8,3.5h0Z"/>
      </g>
      <circle class="cls-1" cx="100.01" cy="83.14" r="4.92"/>
    </g>
    <g>
      <g>
        <path class="cls-2" d="M105.46,43.01c-1.81.53-3.72.8-5.71.78-10.66-.1-19.38-8.82-19.48-19.48-.02-1.98.26-3.9.78-5.71.82-2.82,3.97-4.27,6.65-3.05.06.03.12.06.18.08,2.19,1.01,3.24,3.48,2.59,5.8-.24.85-.37,1.75-.37,2.68,0,5.43,4.4,9.83,9.83,9.83.93,0,1.83-.13,2.68-.37,2.32-.66,4.79.4,5.8,2.58.03.06.06.12.08.19,1.22,2.68-.23,5.83-3.05,6.65l.02.02Z"/>
        <path class="cls-2" d="M112.24,53.63c0,2.72-2.2,4.92-4.92,4.92h-7.34c-11.25,0-21.26-5.43-27.55-13.8-.48-.63-.51-1.49-.1-2.18,1.47-2.49,2.65-5.17,3.5-8,.26-.87,1.45-.95,1.83-.13,3.9,8.42,12.44,14.27,22.32,14.27h7.34c2.71,0,4.92,2.2,4.92,4.92Z"/>
      </g>
      <circle class="cls-2" cx="100.01" cy="24.13" r="4.92"/>
    </g>
  </g>
</svg>